<svg width="24" height="25" viewBox="0 0 24 25" fill="none" xmlns="http://www.w3.org/2000/svg">
<g opacity="0.2">
<path d="M5.29279 5.79296C5.48031 5.60549 5.73462 5.50017 5.99979 5.50017C6.26495 5.50017 6.51926 5.60549 6.70679 5.79296L11.9998 11.086L17.2928 5.79296C17.385 5.69745 17.4954 5.62127 17.6174 5.56886C17.7394 5.51645 17.8706 5.48886 18.0034 5.48771C18.1362 5.48655 18.2678 5.51186 18.3907 5.56214C18.5136 5.61242 18.6253 5.68667 18.7192 5.78056C18.8131 5.87446 18.8873 5.98611 18.9376 6.10901C18.9879 6.2319 19.0132 6.36358 19.012 6.49636C19.0109 6.62914 18.9833 6.76036 18.9309 6.88236C18.8785 7.00437 18.8023 7.11471 18.7068 7.20696L13.4138 12.5L18.7068 17.793C18.8889 17.9816 18.9897 18.2342 18.9875 18.4964C18.9852 18.7586 18.88 19.0094 18.6946 19.1948C18.5092 19.3802 18.2584 19.4854 17.9962 19.4876C17.734 19.4899 17.4814 19.3891 17.2928 19.207L11.9998 13.914L6.70679 19.207C6.51818 19.3891 6.26558 19.4899 6.00339 19.4876C5.74119 19.4854 5.49038 19.3802 5.30497 19.1948C5.11956 19.0094 5.01439 18.7586 5.01211 18.4964C5.00983 18.2342 5.11063 17.9816 5.29279 17.793L10.5858 12.5L5.29279 7.20696C5.10532 7.01943 5 6.76512 5 6.49996C5 6.23479 5.10532 5.98049 5.29279 5.79296Z" fill="#333333"/>
</g>
</svg>
