<svg width="473" height="90" viewBox="0 0 473 90" fill="none" xmlns="http://www.w3.org/2000/svg">
<path d="M76.92 68.16L96.7 20H98.51L119.41 68.16H125.47V69.74H102.89V68.16H108.86L101.34 50.78H85.88L78.68 68.16H83.73V69.74H71.03V68.16H76.92ZM86.38 49.09H100.69L93.45 31.86L86.38 49.09Z" fill="black"/>
<path d="M164.06 35.5901C163.57 34.1101 162.97 33.2701 162.28 31.6401C161.59 30.0001 160.69 28.5001 159.59 27.1401C158.49 25.7701 157.12 24.6501 155.49 23.7801C153.85 22.9101 151.83 22.4701 149.41 22.4701C146.14 22.4701 143.56 23.0701 141.68 24.2801C139.8 25.4901 138.38 27.1701 137.41 29.3201C136.45 31.4701 135.83 33.3201 135.56 36.3001C135.29 39.2801 135.16 42.5401 135.16 46.0801C135.16 50.7401 135.43 53.8601 135.97 56.9101C136.51 59.9601 137.35 62.3801 138.49 64.1701C139.63 65.9601 141.11 67.2201 142.93 67.9301C144.74 68.6501 146.91 69.0101 149.42 69.0101C151.44 69.0101 153.26 68.6101 154.9 67.8001C156.54 66.9901 157.98 65.9301 159.24 64.6101C160.49 63.2901 161.55 61.7801 162.4 60.0701C163.25 58.3701 163.88 57.3301 164.28 55.4901H165.36V69.7401H164.28C164.05 69.2001 163.79 68.8301 163.47 68.6301C163.16 68.4301 162.69 68.3301 162.06 68.3301C161.52 68.3301 160.83 68.4501 159.98 68.7001C159.13 68.9501 158.15 69.2201 157.06 69.5101C155.96 69.8001 154.76 70.0701 153.46 70.3201C152.16 70.5701 150.79 70.6901 149.36 70.6901C146.09 70.6901 142.93 70.0501 139.88 68.7701C136.83 67.4901 134.16 65.7501 131.85 63.5301C129.54 61.3101 127.69 58.7001 126.3 55.7001C124.91 52.7001 124.22 49.4501 124.22 45.9501C124.22 42.1401 124.99 38.6901 126.54 35.6001C128.09 32.5101 130.07 29.8701 132.49 27.6701C134.91 25.4801 137.61 23.7801 140.59 22.6001C143.57 21.4101 146.49 20.8201 149.36 20.8201C150.79 20.8201 152.13 20.9501 153.36 21.2201C154.59 21.4901 155.73 21.7701 156.79 22.0601C157.84 22.3501 158.8 22.6301 159.65 22.9001C160.5 23.1701 161.22 23.3001 161.8 23.3001C162.43 23.3001 162.9 23.2201 163.21 23.0601C163.52 22.9001 163.75 22.5101 163.88 21.8801H164.96V35.5901H164.09H164.06Z" fill="black"/>
<path d="M260.68 23.45C258.89 23.45 256.05 23.7 254.7 24.19C253.36 24.68 252.61 24.74 251.6 25.64C250.59 26.54 249.71 27.61 248.95 28.87C248.19 30.12 247.47 31.54 246.8 33.1H245.93V21.88H282.02L255.33 68.16H267.49C269.28 68.16 271.01 67.91 272.67 67.42C274.33 66.93 275.4 66.74 276.82 65.6C278.24 64.46 279.46 62.98 280.52 61.16C281.57 59.35 282.39 57.14 282.97 54.54H283.84V69.73H243.45L270.04 23.45H260.7H260.68Z" fill="black"/>
<path d="M292.44 35.5901C293.99 32.5001 295.97 29.86 298.39 27.66C300.81 25.47 303.52 23.7701 306.52 22.5901C309.52 21.4001 312.46 20.8101 315.32 20.8101C318.41 20.8101 321.47 21.3901 324.49 22.5601C327.51 23.7301 330.2 25.3801 332.56 27.5301C334.91 29.6801 336.82 32.29 338.27 35.36C339.73 38.43 340.45 41.8901 340.45 45.7401C340.45 49.1001 339.77 52.2901 338.4 55.3201C337.03 58.3401 335.2 61.0001 332.89 63.2801C330.58 65.5601 327.92 67.37 324.89 68.69C321.87 70.01 318.67 70.6701 315.31 70.6701C311.95 70.6701 308.81 70.03 305.77 68.75C302.72 67.47 300.05 65.7301 297.74 63.5101C295.43 61.2901 293.58 58.6801 292.19 55.6801C290.8 52.6801 290.11 49.4301 290.11 45.9301C290.11 42.1201 290.88 38.67 292.43 35.58L292.44 35.5901ZM301.88 57.5301C302.42 60.6001 303.26 63.04 304.4 64.86C305.54 66.67 307.02 67.94 308.84 68.66C310.65 69.38 312.82 69.7401 315.32 69.7401C318.64 69.7401 321.23 69.12 323.12 67.89C325 66.66 326.41 64.9601 327.35 62.7801C328.29 60.6101 328.88 58.03 329.13 55.05C329.38 52.07 329.5 48.8301 329.5 45.3401C329.5 42.2001 329.4 39.2101 329.2 36.3701C329 33.5301 328.43 31.0201 327.49 28.8401C326.55 26.6701 325.13 24.94 323.22 23.66C321.31 22.38 318.68 21.7401 315.32 21.7401C312.18 21.7401 309.68 22.33 307.79 23.5201C305.91 24.7101 304.47 26.3801 303.49 28.5301C302.5 30.6801 301.85 33.23 301.54 36.19C301.23 39.15 301.07 42.4 301.07 45.94C301.07 50.6 301.34 54.4701 301.88 57.5301Z" fill="black"/>
<path d="M359.55 21.88L380.66 52.6H380.79V23.45H375.88V21.87H389.32V23.45H383.14V69.73H381.33L352.36 27.92H352.23V68.16H357.14V69.74H343.7V68.16H349.88V23.46H343.7V21.88H359.56H359.55Z" fill="black"/>
<path d="M436.23 55.01C435.81 57.49 434.93 59.31 434.28 60.42C432 64.34 428.57 66.35 426.68 67.11C425.38 67.63 424.04 67.89 424.04 67.89C423.11 68.06 422.13 68.15 421.1 68.15H410.08V23.45H420.77C422.08 23.45 424.14 23.65 426.35 24.69C429.9 26.37 431.67 29.21 432.33 30.44C432.95 31.59 433.28 32.63 433.47 33.36H434.34V21.87H394.15V23.45H400.33V68.15H394.15V69.73H437.1V55.01H436.23Z" fill="black"/>
<path d="M423.99 34.51C423.97 34.7 423.94 34.96 423.9 35.29C423.81 35.94 423.54 37.78 422.78 39.35C422.51 39.91 421.58 41.84 419.56 42.98C418.22 43.74 416.76 43.8 413.84 43.94C412.28 44.01 410.99 43.98 410.08 43.94V45.34C410.99 45.3 412.29 45.27 413.84 45.34C416.77 45.47 418.23 45.54 419.56 46.3C421.58 47.44 422.5 49.37 422.78 49.93C423.53 51.5 423.8 53.33 423.9 53.99C423.95 54.31 423.98 54.58 423.99 54.77H424.86V34.53H423.99V34.51Z" fill="black"/>
<path d="M64.4601 34.51C64.4401 34.7 64.41 34.96 64.37 35.29C64.28 35.94 64.01 37.78 63.25 39.35C62.98 39.91 62.05 41.84 60.03 42.98C58.69 43.74 57.2301 43.8 54.3101 43.94C52.7501 44.01 51.46 43.98 50.55 43.94V45.34C51.46 45.3 52.7601 45.27 54.3101 45.34C57.2401 45.47 58.7 45.54 60.03 46.3C62.05 47.44 62.97 49.37 63.25 49.93C64 51.5 64.27 53.33 64.37 53.99C64.42 54.31 64.4501 54.58 64.4601 54.77H65.33V34.53H64.4601V34.51Z" fill="black"/>
<path d="M200.79 34.51C200.77 34.7 200.74 34.96 200.7 35.29C200.61 35.94 200.34 37.78 199.58 39.35C199.31 39.91 198.38 41.84 196.36 42.98C195.02 43.74 193.56 43.8 190.64 43.94C189.08 44.01 187.79 43.98 186.88 43.94V45.34C187.79 45.3 189.09 45.27 190.64 45.34C193.57 45.47 195.03 45.54 196.36 46.3C198.38 47.44 199.3 49.37 199.58 49.93C200.33 51.5 200.6 53.33 200.7 53.99C200.75 54.31 200.78 54.58 200.79 54.77H201.66V34.53H200.79V34.51Z" fill="black"/>
<path d="M213.37 55.01C212.95 57.49 212.07 59.31 211.42 60.42C209.14 64.34 205.71 66.35 203.82 67.11C202.52 67.63 201.18 67.89 201.18 67.89C200.25 68.06 199.27 68.15 198.24 68.15H187.22V23.45H197.91C199.22 23.45 201.28 23.65 203.49 24.69C207.04 26.37 208.81 29.21 209.47 30.44C210.09 31.59 210.42 32.63 210.61 33.36H211.48V21.87H171.29V23.45H177.47V68.15H171.29V69.73H214.24V55.01H213.37Z" fill="black"/>
<path d="M35 21.88V23.46H41.18V68.16H35V69.74H57.18V68.16H50.93V23.46H61.08C62.87 23.46 64.43 23.71 65.75 24.2C67.49 24.85 68.59 25.79 69.21 26.32C72 28.68 73.27 31.65 73.85 33.38H74.72V21.89H35V21.88Z" fill="black"/>
</svg>
