<svg width="32" height="32" viewBox="0 0 32 32" fill="none" xmlns="http://www.w3.org/2000/svg">
<path d="M16.551 23.8375L22.851 27.8375C23.6635 28.35 24.6635 27.5875 24.426 26.65L22.601 19.475C22.5516 19.2762 22.5595 19.0674 22.6236 18.8728C22.6877 18.6781 22.8056 18.5056 22.9635 18.375L28.6135 13.6625C29.351 13.05 28.976 11.8125 28.0135 11.75L20.6385 11.275C20.4372 11.2633 20.2438 11.1933 20.0817 11.0734C19.9197 10.9535 19.7961 10.789 19.726 10.6L16.976 3.67503C16.9032 3.47491 16.7706 3.30204 16.5961 3.17988C16.4217 3.05772 16.2139 2.99219 16.001 2.99219C15.788 2.99219 15.5802 3.05772 15.4058 3.17988C15.2314 3.30204 15.0988 3.47491 15.026 3.67503L12.276 10.6C12.2059 10.789 12.0823 10.9535 11.9202 11.0734C11.7582 11.1933 11.5647 11.2633 11.3635 11.275L3.98847 11.75C3.02597 11.8125 2.65097 13.05 3.38847 13.6625L9.03847 18.375C9.19639 18.5056 9.3142 18.6781 9.37834 18.8728C9.44247 19.0674 9.45032 19.2762 9.40097 19.475L7.71347 26.125C7.42597 27.25 8.62597 28.1625 9.58847 27.55L15.451 23.8375C15.6154 23.733 15.8062 23.6775 16.001 23.6775C16.1958 23.6775 16.3866 23.733 16.551 23.8375V23.8375Z" stroke="white" stroke-width="1.4" stroke-linecap="round" stroke-linejoin="round"/>
</svg>
