<svg width="32" height="32" viewBox="0 0 32 32" fill="none" xmlns="http://www.w3.org/2000/svg">
<path d="M29.8996 12.175C29.7744 11.7812 29.5332 11.4345 29.2075 11.1802C28.8818 10.9259 28.4869 10.7759 28.0746 10.75L20.6496 10.2375L17.8996 3.3C17.7494 2.918 17.488 2.58988 17.1493 2.3581C16.8105 2.12633 16.41 2.00158 15.9996 2C15.5891 2.00158 15.1886 2.12633 14.8498 2.3581C14.5111 2.58988 14.2497 2.918 14.0996 3.3L11.2996 10.275L3.92456 10.75C3.51269 10.7776 3.11858 10.9282 2.79322 11.1822C2.46786 11.4363 2.22622 11.7821 2.09956 12.175C1.96948 12.5739 1.96188 13.0026 2.07774 13.4059C2.19359 13.8092 2.42759 14.1685 2.74956 14.4375L8.42456 19.2375L6.73706 25.875C6.6203 26.324 6.64131 26.7978 6.79736 27.2347C6.9534 27.6716 7.23727 28.0515 7.61206 28.325C7.97585 28.5861 8.40927 28.7327 8.85686 28.7461C9.30445 28.7594 9.74584 28.6389 10.1246 28.4L15.9871 24.6875H16.0121L22.3246 28.675C22.6484 28.8854 23.0259 28.9983 23.4121 29C23.7274 28.9975 24.0379 28.9228 24.3198 28.7815C24.6017 28.6403 24.8475 28.4362 25.0382 28.1851C25.229 27.9341 25.3596 27.6426 25.4201 27.3331C25.4805 27.0236 25.4692 26.7044 25.3871 26.4L23.5996 19.1375L29.2496 14.4375C29.5715 14.1685 29.8055 13.8092 29.9214 13.4059C30.0372 13.0026 30.0296 12.5739 29.8996 12.175Z" fill="white"/>
</svg>
