<svg width="194" height="170" viewBox="0 0 194 170" fill="none" xmlns="http://www.w3.org/2000/svg">
<path d="M84.5732 81.2267C64.3866 81.2267 47.96 64.8 47.96 44.6133C47.96 24.4133 64.3866 8 84.5732 8C104.76 8 121.187 24.4133 121.187 44.6133C121.187 64.8 104.76 81.2267 84.5732 81.2267ZM84.5732 -2.8197e-06C59.9732 -2.8197e-06 39.96 20.0133 39.96 44.6133C39.96 69.2133 59.9732 89.2267 84.5732 89.2267C109.173 89.2267 129.187 69.2133 129.187 44.6133C129.187 20.0133 109.173 -2.8197e-06 84.5732 -2.8197e-06Z" fill="#333333"/>
<path d="M163.827 169.133H4C1.78667 169.133 0 167.347 0 165.133C0 135.28 16.0799 107.427 41.9466 92.4533C43.8666 91.3466 46.3066 92 47.4133 93.92C48.5199 95.8266 47.8666 98.2667 45.9599 99.3733C23.7066 112.253 9.46651 135.653 8.10651 161.133H159.733C158.44 135.907 144.96 113.307 123.12 100.107C121.227 98.9733 120.627 96.5067 121.76 94.6267C122.907 92.7333 125.36 92.12 127.253 93.2666C152.667 108.613 167.827 135.48 167.827 165.133C167.827 167.347 166.04 169.133 163.827 169.133Z" fill="#333333"/>
<path d="M188.346 53.4533C183.946 48.6266 176.373 48.56 171.893 53.2933L166.493 58.9866L161.106 53.2933C156.613 48.56 149.053 48.6266 144.653 53.4533C137.68 61.08 138.173 72.9066 145.76 79.92L166.493 99.1333L187.24 79.92C194.826 72.9066 195.32 61.08 188.346 53.4533Z" fill="#333333"/>
</svg>
